<svg width="81" height="81" viewBox="0 0 81 81" fill="none" xmlns="http://www.w3.org/2000/svg">
<circle cx="41.0544" cy="40.4368" r="28" transform="rotate(45 41.0544 40.4368)" fill="#7F3DFF"/>
<mask id="path-2-inside-1_1429_3903" fill="white">
<path d="M40.3474 41.8942L47.4224 48.9692C47.5345 49.1001 47.6724 49.2064 47.8274 49.2814C47.9825 49.3564 48.1514 49.3986 48.3236 49.4052C48.4957 49.4119 48.6674 49.3829 48.8278 49.32C48.9882 49.2572 49.1339 49.1619 49.2557 49.0401C49.3775 48.9182 49.4729 48.7725 49.5357 48.6121C49.5985 48.4517 49.6275 48.2801 49.6209 48.1079C49.6142 47.9358 49.5721 47.7669 49.4971 47.6118C49.422 47.4567 49.3157 47.3188 49.1849 47.2067L42.1099 40.1317L49.1849 33.0567C49.3897 32.8176 49.4967 32.51 49.4845 32.1954C49.4724 31.8808 49.342 31.5824 49.1194 31.3598C48.8967 31.1372 48.5983 31.0067 48.2837 30.9946C47.9691 30.9824 47.6615 31.0895 47.4224 31.2942L40.3474 38.3692L33.2724 31.2942C33.0382 31.0614 32.7214 30.9307 32.3911 30.9307C32.0609 30.9307 31.7441 31.0614 31.5099 31.2942C31.2771 31.5284 31.1464 31.8453 31.1464 32.1755C31.1464 32.5057 31.2771 32.8225 31.5099 33.0567L38.5849 40.1317L31.5099 47.2067C31.2771 47.4409 31.1464 47.7578 31.1464 48.088C31.1464 48.4182 31.2771 48.735 31.5099 48.9692C31.7441 49.2021 32.0609 49.3327 32.3911 49.3327C32.7214 49.3327 33.0382 49.2021 33.2724 48.9692L40.3474 41.8942Z"/>
</mask>
<path d="M40.3474 41.8942L47.4224 48.9692C47.5345 49.1001 47.6724 49.2064 47.8274 49.2814C47.9825 49.3564 48.1514 49.3986 48.3236 49.4052C48.4957 49.4119 48.6674 49.3829 48.8278 49.32C48.9882 49.2572 49.1339 49.1619 49.2557 49.0401C49.3775 48.9182 49.4729 48.7725 49.5357 48.6121C49.5985 48.4517 49.6275 48.2801 49.6209 48.1079C49.6142 47.9358 49.5721 47.7669 49.4971 47.6118C49.422 47.4567 49.3157 47.3188 49.1849 47.2067L42.1099 40.1317L49.1849 33.0567C49.3897 32.8176 49.4967 32.51 49.4845 32.1954C49.4724 31.8808 49.342 31.5824 49.1194 31.3598C48.8967 31.1372 48.5983 31.0067 48.2837 30.9946C47.9691 30.9824 47.6615 31.0895 47.4224 31.2942L40.3474 38.3692L33.2724 31.2942C33.0382 31.0614 32.7214 30.9307 32.3911 30.9307C32.0609 30.9307 31.7441 31.0614 31.5099 31.2942C31.2771 31.5284 31.1464 31.8453 31.1464 32.1755C31.1464 32.5057 31.2771 32.8225 31.5099 33.0567L38.5849 40.1317L31.5099 47.2067C31.2771 47.4409 31.1464 47.7578 31.1464 48.088C31.1464 48.4182 31.2771 48.735 31.5099 48.9692C31.7441 49.2021 32.0609 49.3327 32.3911 49.3327C32.7214 49.3327 33.0382 49.2021 33.2724 48.9692L40.3474 41.8942Z" fill="black"/>
<path d="M40.3474 41.8942L42.1152 40.1265L40.3474 38.3587L38.5796 40.1265L40.3474 41.8942ZM47.4224 48.9692L49.3213 47.3431L49.2584 47.2698L49.1902 47.2015L47.4224 48.9692ZM49.1849 47.2067L47.4171 48.9745L47.4854 49.0428L47.5588 49.1056L49.1849 47.2067ZM42.1099 40.1317L40.3421 38.364L38.5744 40.1317L40.3421 41.8995L42.1099 40.1317ZM49.1849 33.0567L50.9527 34.8245L51.0209 34.7562L51.0838 34.6829L49.1849 33.0567ZM47.4224 31.2942L45.7963 29.3954L45.7229 29.4582L45.6546 29.5265L47.4224 31.2942ZM40.3474 38.3692L38.5796 40.137L40.3474 41.9048L42.1152 40.137L40.3474 38.3692ZM33.2724 31.2942L35.0402 29.5265L35.0349 29.5212L33.2724 31.2942ZM31.5099 31.2942L29.7474 29.5212L29.7421 29.5265L29.7369 29.5317L31.5099 31.2942ZM31.5099 33.0567L29.7369 34.8192L29.7421 34.8245L31.5099 33.0567ZM38.5849 40.1317L40.3527 41.8995L42.1204 40.1317L40.3527 38.364L38.5849 40.1317ZM31.5099 47.2067L29.7421 45.439L29.7369 45.4442L31.5099 47.2067ZM31.5099 48.9692L29.7369 50.7317L29.7421 50.737L29.7474 50.7423L31.5099 48.9692ZM33.2724 48.9692L35.0349 50.7423L35.0402 50.737L33.2724 48.9692ZM38.5796 43.662L45.6546 50.737L49.1902 47.2015L42.1152 40.1265L38.5796 43.662ZM45.5235 50.5954C45.8597 50.9879 46.2734 51.3068 46.7386 51.5318L48.9162 47.0309C49.0713 47.106 49.2092 47.2122 49.3213 47.3431L45.5235 50.5954ZM46.7386 51.5318C47.2039 51.7569 47.7106 51.8834 48.2271 51.9034L48.4201 46.9071C48.5922 46.9137 48.7611 46.9559 48.9162 47.0309L46.7386 51.5318ZM48.2271 51.9034C48.7435 51.9233 49.2585 51.8363 49.7397 51.6478L47.9159 46.9923C48.0763 46.9295 48.2479 46.9004 48.4201 46.9071L48.2271 51.9034ZM49.7397 51.6478C50.221 51.4592 50.658 51.1733 51.0235 50.8078L47.4879 47.2723C47.6098 47.1505 47.7554 47.0551 47.9159 46.9923L49.7397 51.6478ZM51.0235 50.8078C51.3889 50.4424 51.6749 50.0053 51.8634 49.5241L47.208 47.7002C47.2708 47.5398 47.3661 47.3941 47.4879 47.2723L51.0235 50.8078ZM51.8634 49.5241C52.052 49.0429 52.139 48.5279 52.119 48.0114L47.1228 48.2044C47.1161 48.0323 47.1451 47.8606 47.208 47.7002L51.8634 49.5241ZM52.119 48.0114C52.0991 47.495 51.9726 46.9882 51.7475 46.523L47.2466 48.7006C47.1716 48.5455 47.1294 48.3766 47.1228 48.2044L52.119 48.0114ZM51.7475 46.523C51.5224 46.0577 51.2036 45.6441 50.811 45.3079L47.5588 49.1056C47.4279 48.9935 47.3216 48.8556 47.2466 48.7006L51.7475 46.523ZM50.9527 45.439L43.8777 38.364L40.3421 41.8995L47.4171 48.9745L50.9527 45.439ZM43.8777 41.8995L50.9527 34.8245L47.4171 31.289L40.3421 38.364L43.8777 41.8995ZM51.0838 34.6829C51.6981 33.9655 52.0191 33.0427 51.9827 32.0989L46.9864 32.2919C46.9742 31.9773 47.0813 31.6697 47.286 31.4306L51.0838 34.6829ZM51.9827 32.0989C51.9462 31.1551 51.555 30.2599 50.8871 29.592L47.3516 33.1276C47.129 32.9049 46.9986 32.6065 46.9864 32.2919L51.9827 32.0989ZM50.8871 29.592C50.2193 28.9242 49.324 28.5329 48.3802 28.4965L48.1872 33.4927C47.8726 33.4806 47.5742 33.3502 47.3516 33.1276L50.8871 29.592ZM48.3802 28.4965C47.4364 28.46 46.5136 28.781 45.7963 29.3954L49.0485 33.1931C48.8094 33.3979 48.5018 33.5049 48.1872 33.4927L48.3802 28.4965ZM45.6546 29.5265L38.5796 36.6015L42.1152 40.137L49.1902 33.062L45.6546 29.5265ZM42.1152 36.6015L35.0402 29.5265L31.5046 33.062L38.5796 40.137L42.1152 36.6015ZM35.0349 29.5212C34.3323 28.8228 33.3819 28.4307 32.3911 28.4307V33.4307C32.0609 33.4307 31.7441 33.3001 31.5099 33.0673L35.0349 29.5212ZM32.3911 28.4307C31.4004 28.4307 30.45 28.8228 29.7474 29.5212L33.2724 33.0673C33.0382 33.3001 32.7214 33.4307 32.3911 33.4307V28.4307ZM29.7369 29.5317C29.0384 30.2343 28.6464 31.1848 28.6464 32.1755H33.6464C33.6464 32.5057 33.5157 32.8225 33.2829 33.0567L29.7369 29.5317ZM28.6464 32.1755C28.6464 33.1662 29.0384 34.1166 29.7369 34.8192L33.2829 31.2942C33.5157 31.5284 33.6464 31.8453 33.6464 32.1755H28.6464ZM29.7421 34.8245L36.8171 41.8995L40.3527 38.364L33.2777 31.289L29.7421 34.8245ZM36.8171 38.364L29.7421 45.439L33.2777 48.9745L40.3527 41.8995L36.8171 38.364ZM29.7369 45.4442C29.0384 46.1468 28.6464 47.0973 28.6464 48.088H33.6464C33.6464 48.4182 33.5157 48.735 33.2829 48.9692L29.7369 45.4442ZM28.6464 48.088C28.6464 49.0787 29.0384 50.0291 29.7369 50.7317L33.2829 47.2067C33.5157 47.4409 33.6464 47.7578 33.6464 48.088H28.6464ZM29.7474 50.7423C30.45 51.4407 31.4005 51.8327 32.3911 51.8327V46.8327C32.7214 46.8327 33.0382 46.9634 33.2724 47.1962L29.7474 50.7423ZM32.3911 51.8327C33.3818 51.8327 34.3323 51.4407 35.0349 50.7423L31.5099 47.1962C31.7441 46.9634 32.0609 46.8327 32.3911 46.8327V51.8327ZM35.0402 50.737L42.1152 43.662L38.5796 40.1265L31.5046 47.2015L35.0402 50.737Z" fill="#FCFCFC" mask="url(#path-2-inside-1_1429_3903)"/>
</svg>
