<svg width="24" height="24" viewBox="0 0 24 24" fill="none" xmlns="http://www.w3.org/2000/svg">
<rect width="24" height="24" rx="12" fill="black" fill-opacity="0.32"/>
<path d="M13.0575 12L17.3025 7.75499C17.381 7.68776 17.4448 7.60502 17.4898 7.51197C17.5348 7.41892 17.5601 7.31757 17.5641 7.21428C17.5681 7.11099 17.5507 7.00799 17.513 6.91175C17.4753 6.81551 17.4181 6.72809 17.345 6.655C17.2719 6.58191 17.1845 6.52472 17.0883 6.48701C16.992 6.44931 16.889 6.4319 16.7857 6.43589C16.6824 6.43988 16.5811 6.46518 16.488 6.5102C16.395 6.55521 16.3123 6.61898 16.245 6.69749L12 10.9425L7.75503 6.69749C7.61155 6.57462 7.42699 6.51042 7.23824 6.51771C7.04948 6.525 6.87042 6.60325 6.73685 6.73682C6.60328 6.87039 6.52503 7.04944 6.51774 7.2382C6.51045 7.42696 6.57466 7.61151 6.69753 7.75499L10.9425 12L6.69753 16.245C6.55784 16.3855 6.47943 16.5756 6.47943 16.7737C6.47943 16.9719 6.55784 17.162 6.69753 17.3025C6.83805 17.4422 7.02814 17.5206 7.22628 17.5206C7.42442 17.5206 7.6145 17.4422 7.75503 17.3025L12 13.0575L16.245 17.3025C16.3855 17.4422 16.5756 17.5206 16.7738 17.5206C16.9719 17.5206 17.162 17.4422 17.3025 17.3025C17.4422 17.162 17.5206 16.9719 17.5206 16.7737C17.5206 16.5756 17.4422 16.3855 17.3025 16.245L13.0575 12Z" fill="white"/>
</svg>
