<svg width="23" height="23" viewBox="0 0 23 23" fill="none" xmlns="http://www.w3.org/2000/svg">
<path d="M20.19 8.45998L8.18996 20.46C7.91385 20.7302 7.56733 20.9173 7.18996 21L3.64996 21.71C3.32767 21.7737 2.99465 21.7571 2.68033 21.6615C2.366 21.566 2.08005 21.3945 1.84775 21.1622C1.61545 20.9299 1.44395 20.6439 1.34841 20.3296C1.25287 20.0153 1.23623 19.6823 1.29996 19.36L1.99996 15.85C2.08263 15.4726 2.26975 15.1261 2.53996 14.85L14.38 2.99998C14.7665 2.60387 15.2285 2.28909 15.7385 2.07417C16.2486 1.85925 16.7965 1.74854 17.35 1.74854C17.9034 1.74854 18.4513 1.85925 18.9614 2.07417C19.4715 2.28909 19.9334 2.60387 20.32 2.99998C21.0089 3.75992 21.3796 4.75549 21.3554 5.78095C21.3312 6.80641 20.914 7.78338 20.19 8.50998V8.45998Z" stroke="#212325" stroke-width="2" stroke-linecap="round" stroke-linejoin="round"/>
</svg>
