<svg width="50" height="50" viewBox="0 0 50 50" fill="none" xmlns="http://www.w3.org/2000/svg">
<rect x="1" y="1" width="48" height="48" rx="8" fill="#7F3DFF"/>
<rect x="1" y="1" width="48" height="48" rx="8" stroke="#7F3DFF"/>
<path d="M37 24H26V13C28.8412 13.2284 31.5083 14.4606 33.5239 16.4761C35.5394 18.4917 36.7716 21.1588 37 24Z" fill="white"/>
<path d="M37 26C36.801 28.2756 35.9566 30.4471 34.566 32.2594C33.1754 34.0716 31.2965 35.4493 29.15 36.2306C27.0035 37.0119 24.6786 37.1643 22.4484 36.6699C20.2183 36.1755 18.1756 35.0549 16.5604 33.4396C14.9451 31.8244 13.8245 29.7817 13.3301 27.5516C12.8357 25.3214 12.9881 22.9965 13.7694 20.85C14.5507 18.7035 15.9284 16.8246 17.7407 15.434C19.5529 14.0435 21.7244 13.199 24 13V25C24 25.2652 24.1054 25.5196 24.2929 25.7071C24.4804 25.8946 24.7348 26 25 26H37Z" fill="white"/>
</svg>
