<svg width="33" height="32" viewBox="0 0 33 32" fill="none" xmlns="http://www.w3.org/2000/svg">
<path d="M23.5 16.28C22.9375 15.7182 22.175 15.4026 21.38 15.4026C20.585 15.4026 19.8225 15.7182 19.26 16.28L7.5 28C9.19 28 14.28 28 25.5 28C26.5072 27.997 27.49 27.6899 28.3198 27.1189C29.1495 26.5479 29.7874 25.7397 30.15 24.8C30.15 24.68 30.24 24.55 30.28 24.42L30.4 24C30.4338 23.8383 30.4572 23.6747 30.47 23.51C30.4753 23.4668 30.4753 23.4232 30.47 23.38C30.4747 23.3637 30.4747 23.3463 30.47 23.33L23.5 16.28Z" fill="#7F3DFF"/>
<path d="M30.5 8.51999C30.3803 7.27878 29.8011 6.12708 28.8761 5.29085C27.9511 4.45463 26.747 3.99423 25.5 3.99999H7.5C6.25304 3.99423 5.04893 4.45463 4.1239 5.29085C3.19887 6.12708 2.6197 7.27878 2.5 8.51999C2.48779 8.67976 2.48779 8.84023 2.5 8.99999V23C2.49005 23.1698 2.49005 23.3401 2.5 23.51C2.52368 23.6817 2.55706 23.852 2.6 24.02C2.95743 25.106 3.57544 26.088 4.4 26.88C4.66163 27.0921 4.94685 27.2733 5.25 27.42L17.82 14.86C18.2845 14.3944 18.8362 14.0249 19.4437 13.7729C20.0511 13.5208 20.7023 13.3911 21.36 13.3911C22.0177 13.3911 22.6689 13.5208 23.2763 13.7729C23.8838 14.0249 24.4355 14.3944 24.9 14.86L30.5 20.46V8.99999C30.5122 8.84023 30.5122 8.67976 30.5 8.51999ZM8.5 12C8.10444 12 7.71776 11.8827 7.38886 11.6629C7.05996 11.4432 6.80362 11.1308 6.65224 10.7654C6.50087 10.3999 6.46126 9.99777 6.53843 9.60981C6.6156 9.22185 6.80608 8.86548 7.08579 8.58578C7.36549 8.30607 7.72186 8.11559 8.10982 8.03842C8.49778 7.96125 8.89992 8.00086 9.26537 8.15223C9.63082 8.30361 9.94318 8.55995 10.1629 8.88885C10.3827 9.21775 10.5 9.60443 10.5 9.99999C10.5 10.5304 10.2893 11.0391 9.91421 11.4142C9.53914 11.7893 9.03043 12 8.5 12Z" fill="#7F3DFF"/>
</svg>
