<svg width="52" height="52" viewBox="0 0 52 52" fill="none" xmlns="http://www.w3.org/2000/svg">
<rect width="52" height="52" rx="16" fill="#FFE2E4"/>
<path d="M29 18V17C29 16.4696 28.7893 15.9609 28.4142 15.5858C28.0391 15.2107 27.5304 15 27 15H17C16.4696 15 15.9609 15.2107 15.5858 15.5858C15.2107 15.9609 15 16.4696 15 17V35C15 35.5304 15.2107 36.0391 15.5858 36.4142C15.9609 36.7893 16.4696 37 17 37H27C27.5304 37 28.0391 36.7893 28.4142 36.4142C28.7893 36.0391 29 35.5304 29 35V34" stroke="#FD3C4A" stroke-width="2" stroke-linecap="round" stroke-linejoin="round"/>
<path d="M21 26H36.83" stroke="#FD3C4A" stroke-width="2" stroke-linecap="round" stroke-linejoin="round"/>
<path d="M33.59 21.76L36.41 24.59C36.7825 24.9647 36.9916 25.4716 36.9916 26C36.9916 26.5284 36.7825 27.0353 36.41 27.41L33.59 30.24" stroke="#FD3C4A" stroke-width="2" stroke-linecap="round" stroke-linejoin="round"/>
</svg>
