<svg width="52" height="52" viewBox="0 0 52 52" fill="none" xmlns="http://www.w3.org/2000/svg">
<rect width="52" height="52" rx="16" fill="#EEE5FF"/>
<path d="M26 14C23.6266 14 21.3066 14.7038 19.3332 16.0224C17.3598 17.3409 15.8217 19.2151 14.9135 21.4078C14.0052 23.6005 13.7676 26.0133 14.2306 28.3411C14.6936 30.6689 15.8365 32.8071 17.5147 34.4853C19.193 36.1635 21.3312 37.3064 23.6589 37.7694C25.9867 38.2324 28.3995 37.9948 30.5922 37.0866C32.7849 36.1783 34.6591 34.6402 35.9776 32.6668C37.2962 30.6935 38 28.3734 38 26C38 22.8174 36.7357 19.7652 34.4853 17.5147C32.2348 15.2643 29.1826 14 26 14ZM25 21C25 20.7348 25.1054 20.4804 25.2929 20.2929C25.4804 20.1054 25.7348 20 26 20C26.2652 20 26.5196 20.1054 26.7071 20.2929C26.8946 20.4804 27 20.7348 27 21V27C27 27.2652 26.8946 27.5196 26.7071 27.7071C26.5196 27.8946 26.2652 28 26 28C25.7348 28 25.4804 27.8946 25.2929 27.7071C25.1054 27.5196 25 27.2652 25 27V21ZM26 32C25.8022 32 25.6089 31.9414 25.4444 31.8315C25.28 31.7216 25.1518 31.5654 25.0761 31.3827C25.0004 31.2 24.9806 30.9989 25.0192 30.8049C25.0578 30.6109 25.153 30.4327 25.2929 30.2929C25.4328 30.153 25.6109 30.0578 25.8049 30.0192C25.9989 29.9806 26.2 30.0004 26.3827 30.0761C26.5654 30.1518 26.7216 30.28 26.8315 30.4444C26.9414 30.6089 27 30.8022 27 31C27 31.2652 26.8946 31.5196 26.7071 31.7071C26.5196 31.8946 26.2652 32 26 32Z" fill="#7F3DFF"/>
</svg>
